<svg width="31" height="31" viewBox="0 0 31 31" fill="none" xmlns="http://www.w3.org/2000/svg">
<path d="M15.8057 30.8057C15.7031 30.8057 15.6004 30.8057 15.497 30.8052C13.067 30.8111 10.8217 30.7497 8.63819 30.6176C6.63629 30.4966 4.80893 29.8091 3.35338 28.6298C1.94893 27.4918 0.989837 25.953 0.502842 24.0568C0.0789978 22.406 0.0565284 20.7854 0.035005 19.218C0.0193946 18.0934 0.00331128 16.7608 0 15.4056C0.00331128 14.0448 0.0193946 12.7122 0.035005 11.5876C0.0565284 10.0204 0.0789978 8.39986 0.502842 6.74878C0.989837 4.85256 1.94893 3.31383 3.35338 2.17581C4.80893 0.996437 6.63629 0.308977 8.63843 0.187937C10.822 0.0560856 13.0677 -0.0054921 15.503 0.000383635C17.9337 -0.00478701 20.1783 0.0560856 22.3618 0.187937C24.3637 0.308977 26.1911 0.996437 27.6466 2.17581C29.0513 3.31383 30.0102 4.85256 30.4972 6.74878C30.921 8.39962 30.9435 10.0204 30.965 11.5876C30.9806 12.7122 30.9969 14.0448 31 15.4V15.4056C30.9969 16.7608 30.9806 18.0934 30.965 19.218C30.9435 20.7852 30.9212 22.4057 30.4972 24.0568C30.0102 25.953 29.0513 27.4918 27.6466 28.6298C26.1911 29.8091 24.3637 30.4966 22.3618 30.6176C20.2707 30.7441 18.1227 30.8057 15.8057 30.8057ZM15.497 28.3985C17.8876 28.4041 20.0825 28.3442 22.2147 28.2154C23.7284 28.124 25.0409 27.6358 26.1161 26.7646C27.11 25.9591 27.7944 24.8479 28.1504 23.4617C28.5033 22.0875 28.5236 20.612 28.5433 19.1851C28.5586 18.068 28.5747 16.7448 28.578 15.4028C28.5747 14.0605 28.5586 12.7376 28.5433 11.6205C28.5236 10.1936 28.5033 8.71809 28.1504 7.34364C27.7944 5.95743 27.11 4.84622 26.1161 4.04077C25.0409 3.16975 23.7284 2.6816 22.2147 2.59017C20.0825 2.46114 17.8876 2.40168 15.5027 2.40685C13.1127 2.40121 10.9175 2.46114 8.78531 2.59017C7.27158 2.6816 5.95913 3.16975 4.88391 4.04077C3.89005 4.84622 3.20556 5.95743 2.8496 7.34364C2.49671 8.71809 2.47637 10.1934 2.45674 11.6205C2.44136 12.7385 2.42528 14.0624 2.42197 15.4056C2.42528 16.7429 2.44136 18.0671 2.45674 19.1851C2.47637 20.612 2.49671 22.0875 2.8496 23.4617C3.20556 24.8479 3.89005 25.9591 4.88391 26.7646C5.95913 27.6356 7.27158 28.1237 8.78531 28.2152C10.9175 28.3442 13.1132 28.4044 15.497 28.3985ZM15.4393 22.9237C11.2662 22.9237 7.87068 19.5499 7.87068 15.4028C7.87068 11.2557 11.2662 7.88185 15.4393 7.88185C19.6127 7.88185 23.008 11.2557 23.008 15.4028C23.008 19.5499 19.6127 22.9237 15.4393 22.9237ZM15.4393 10.2886C12.6016 10.2886 10.2927 12.5829 10.2927 15.4028C10.2927 18.2227 12.6016 20.517 15.4393 20.517C18.2773 20.517 20.586 18.2227 20.586 15.4028C20.586 12.5829 18.2773 10.2886 15.4393 10.2886ZM23.8557 5.47515C22.8526 5.47515 22.0392 6.28319 22.0392 7.28018C22.0392 8.27717 22.8526 9.0852 23.8557 9.0852C24.859 9.0852 25.6721 8.27717 25.6721 7.28018C25.6721 6.28319 24.859 5.47515 23.8557 5.47515Z" fill="#9A7AA0"/>
</svg>
