<svg width="25" height="25" viewBox="0 0 25 25" fill="none" xmlns="http://www.w3.org/2000/svg">
<path d="M24.8477 24.1104L17.2415 16.5042C18.8206 14.75 19.7915 12.4375 19.7915 9.89583C19.7915 4.43959 15.3519 0 9.8957 0C4.43951 0 0 4.43959 0 9.89583C0 15.3521 4.43956 19.7917 9.89575 19.7917C12.4374 19.7917 14.7499 18.8208 16.504 17.2406L24.1102 24.8469C24.2123 24.949 24.3456 25 24.479 25C24.6123 25 24.7456 24.949 24.8477 24.8479C25.0508 24.6438 25.0508 24.3146 24.8477 24.1104ZM9.89575 18.75C5.01353 18.75 1.04169 14.7781 1.04169 9.89588C1.04169 5.01361 5.01348 1.0417 9.89575 1.0417C14.778 1.0417 18.7498 5.01356 18.7498 9.89583C18.7498 14.7781 14.778 18.75 9.89575 18.75Z" fill="white"/>
</svg>
