<svg width="23" height="24" viewBox="0 0 23 24" fill="none" xmlns="http://www.w3.org/2000/svg">
<path d="M11.5 12.0309C5.15896 12.0309 0 17.1766 0 23.5013C0 23.7766 0.224015 24 0.500014 24C0.776014 24 1.00003 23.7766 1.00003 23.5013C1.00003 17.7262 5.71002 13.0283 11.5 13.0283C17.29 13.0283 22 17.7262 22 23.5013C22 23.7766 22.224 24 22.5 24C22.776 24 23 23.7766 23 23.5013C23 17.1756 17.841 12.0309 11.5 12.0309Z" fill="white"/>
<path d="M11.5 0C8.46798 0 6.00002 2.46063 6.00002 5.48581C6.00002 8.51099 8.46803 10.9716 11.5 10.9716C14.5319 10.9716 17 8.51099 17 5.48581C17 2.46063 14.532 0 11.5 0ZM11.5 9.97421C9.01899 9.97421 7 7.96042 7 5.48581C7 3.0112 9.01899 0.997407 11.5 0.997407C13.981 0.997407 16 3.0112 16 5.48581C16 7.96042 13.981 9.97421 11.5 9.97421Z" fill="white"/>
</svg>
